<svg>
   <rect style="opacity:1;fill:#ff00ff;fill-opacity:1;stroke:none;stroke-width:1;stroke-linecap:round;stroke-linejoin:round;stroke-miterlimit:4;stroke-dasharray:none;stroke-opacity:1" id="rect824" width="93.107582" height="95.284195" x="3.3857307" y="2.4183817" rx="26.456699" ry="26.456699" />
   <path d="m 31.970076,50.352686 c 0,-4.909073 2.072413,-9.350614 5.363892,-12.389564 L 24.289958,25.106027 24.046145,25.339792 A 36.571989,35.064803 0 0 0 23.802332,75.014931 L 37.090155,62.274719 A 17.920275,17.181754 0 0 1 32.091983,50.352686 Z M 83.780394,64.027959 A 36.571989,35.064803 0 0 0 75.978369,25.456676 L 75.734556,25.22291 62.446734,37.963122 a 18.042182,17.298637 0 0 1 0.487626,24.311597 l 13.287823,12.740212 a 36.571989,35.064803 0 0 0 7.558211,-10.986972 z" id="path2" style="stroke-width:1.19368231;fill:#ffffff;fill-opacity:1" />
</svg>
