<svg>
  <path d="M101.5 8H97v28.5h4.5V20.9c0-7 3.7-8.8 9.4-9V7.5c-5.1.1-7.6 2.4-9.4 5.6V8Z"></path>
  <path fill-rule="evenodd" clip-rule="evenodd" d="M112.4 22.1v.5c0 8.7 5.7 14.4 13.7 14.4 6.5 0 11.2-3 12.2-8.7h-4.5c-.6 3.3-3.2 5-7.6 5-5.8 0-9-3.7-9.1-10.1h21.4v-1.5c0-10.2-6.2-14.1-12.8-14.1-7.8 0-13.3 6-13.3 14.5Zm13.3-10.8c4.7 0 7.7 2.4 8.2 8.2h-16.7c.8-5 3.9-8.2 8.5-8.2Z"></path>
  <path d="M146.9 27.7h-4.4c.3 5.9 4.3 9.3 11.1 9.3 7 0 10.5-3.5 10.5-8.7 0-6-4.2-7.3-10-8.4-5.2-1-6.7-2-6.7-4.5 0-2.4 2.2-4 5.4-4 3.6 0 5.3 1.3 6 4.4h4.3c-.7-6.2-5.1-8.2-10.2-8.2-4.5 0-9.6 2.7-9.6 8 0 5 2.5 7 9.8 8.3 4.5.9 6.7 1.8 6.7 4.8s-2 4.5-6.2 4.5c-4.6 0-6.4-2-6.7-5.5ZM203.8 8h-4.5v28.5h4.5V19.3c0-5.1 3.7-7.8 8-7.8 4.5 0 6.6 2.2 6.6 7.2v17.8h4.5V19c0-8.2-4.1-11.4-10-11.4-4.7 0-7.8 2.3-9.1 5V8Z"></path>
  <path fill-rule="evenodd" clip-rule="evenodd" d="M241.4 19.8c-7.3 0-14.2 2.2-14.2 8.8 0 5.8 4.2 8.4 9.4 8.4 4.2 0 6.8-1.4 8.9-4v3.5h4.5V17.7c0-7.9-5-10.1-10.4-10.1-5.5 0-10.6 2.4-11.2 8.8h4.5c.4-3.4 2.6-5 6.5-5 4.3 0 6 1.8 6 6.3v2.1h-4Zm4 3.2v3.5c0 4.5-3.6 6.9-8.3 6.9-4 0-5.4-1.8-5.4-4.8 0-4.2 4.2-5.6 9.9-5.6h3.9Z"></path>
  <path d="M257.6 11.9v17.5c0 4.4 2.5 7.5 7.6 7.5 1.9 0 3-.3 3.9-.6v-3.8c-1 .4-2 .6-3.5.6-2.3 0-3.5-1.4-3.5-4.2V12h6.6V8h-6.6V1.6h-4.5v6.5h-4.1v3.8h4Z"></path>
  <path fill-rule="evenodd" clip-rule="evenodd" d="M272.1 22.1v.5c0 8.7 5.7 14.4 13.8 14.4 6.4 0 11.1-3 12.1-8.7h-4.5c-.6 3.3-3.2 5-7.6 5-5.8 0-8.9-3.7-9.1-10.1h21.4v-1.5c0-10.2-6.2-14.1-12.8-14.1-7.8 0-13.3 6-13.3 14.5Zm13.3-10.8c4.7 0 7.8 2.4 8.2 8.2H277c.7-5 3.8-8.2 8.4-8.2ZM166.6 22a14.7 14.7 0 1 1 29.4 0 14.7 14.7 0 0 1-29.4 0Zm14.7 11c6.2 0 10-4.3 10-10.7v-.4c0-6.6-3.9-10.8-10-10.8s-10 4.2-10 10.7v.5c0 6.5 3.8 10.7 10 10.7Z"></path>
  <path d="M16.3 22.5c0-4.2 1.7-8 4.4-10.6L10 .9l-.2.2a30 30 0 0 0-.2 42.5l10.9-10.9a14.7 14.7 0 0 1-4.1-10.2Zm42.5 11.7a30 30 0 0 0-6.4-33l-.2-.2-10.9 10.9a14.8 14.8 0 0 1 .4 20.8l10.9 10.9a30 30 0 0 0 6.2-9.4Z"></path>
</svg>